<svg xmlns="http://www.w3.org/2000/svg" xmlns:xlink="http://www.w3.org/1999/xlink" width="70.036" height="42.749" viewBox="0 0 70.036 42.749">
  <defs>
    <clipPath id="clip-path">
      <path id="Path_55" data-name="Path 55" d="M0,0H70.036V-42.749H0Z" fill="none"/>
    </clipPath>
  </defs>
  <g id="Group_52" data-name="Group 52" transform="translate(0 42.749)">
    <g id="Group_48" data-name="Group 48" clip-path="url(#clip-path)">
      <g id="Group_35" data-name="Group 35" transform="translate(44.447 -23.277)">
        <path id="Path_42" data-name="Path 42" d="M0,0-3.716,13.186l2.776.009h.188l.008-.007a2.654,2.654,0,0,0,2.393-2l.006-.006L3.537,4.454l2.984,8.754,5.084.009L7.354,1.868,8.8,0Z" fill="#404645"/>
      </g>
      <g id="Group_36" data-name="Group 36" transform="translate(44.659 -23.994)">
        <path id="Path_43" data-name="Path 43" d="M0,0H9.152l6.985-8.77-5.446-.009L5.474-2.349,7.115-8.782l-1.743,0A4.1,4.1,0,0,0,1.6-5.671c-.039.114-.074.232-.108.355C.323-1.023,0,0,0,0" fill="#404645"/>
      </g>
      <g id="Group_37" data-name="Group 37" transform="translate(16.399 -23.277)">
        <path id="Path_44" data-name="Path 44" d="M0,0-3.732,13.208l3.022.009h.188l.008-.007a2.653,2.653,0,0,0,2.392-2l.007-.005L3.654,4.883l5.084.009L10.242,0Z" fill="#404645"/>
      </g>
      <g id="Group_38" data-name="Group 38" transform="translate(24.619 -28.39)">
        <path id="Path_45" data-name="Path 45" d="M0,0H.089L3.5.007l1.381-4.44-6.048,0-.023.02A6.328,6.328,0,0,0-6.895.619L-7.964,4.395h5s.217-.871.767-2.593A2.551,2.551,0,0,1,0,0" fill="#404645"/>
      </g>
      <g id="Group_39" data-name="Group 39" transform="translate(40.676 -32.794)">
        <path id="Path_46" data-name="Path 46" d="M0,0-9.141-.018-11.577,8.8h5.008L-5.31,4.573l2.529,0c.737,0,.529.577.457.822s-.963,3.4-.963,3.4H1.655S3.022,4.066,3.07,3.2A2.971,2.971,0,0,0,0,0" fill="#404645"/>
      </g>
      <g id="Group_40" data-name="Group 40" transform="translate(35.052 -15.764)">
        <path id="Path_47" data-name="Path 47" d="M0,0C-.252.863-.7.679-.817.679l-2.729,0,2.393-8.188h-5L-9.783,5.645s6.56.016,9.915.011a4.256,4.256,0,0,0,4.109-3.2l2.84-9.97H2.136S.252-.864,0,0" fill="#404645"/>
      </g>
      <g id="Group_41" data-name="Group 41" transform="translate(10.01 -23.277)">
        <path id="Path_48" data-name="Path 48" d="M0,0H-4.092l-2.7,9.676,0,.009a2.77,2.77,0,0,0-.089.7,2.8,2.8,0,0,0,1.3,2.375h0l0,0h0a2.793,2.793,0,0,0,1.495.435,2.68,2.68,0,0,0,.41.005h0l2.007,0L2.027,0Z" fill="#404645"/>
      </g>
      <g id="Group_42" data-name="Group 42" transform="translate(46.719 -40.741)">
        <path id="Path_49" data-name="Path 49" d="M0,0A7.244,7.244,0,0,0,.686-1.964l-7.218-.013-7.093-.013-10.554-.018h0A14.747,14.747,0,0,0-38.368,8.81l.005,0-2.222,7.935h6.12l1.8-6.424h0a8.849,8.849,0,0,1,8.528-6.433l17.265.03c.13.008.262.012.394.012s.263,0,.393-.01h.2V3.908a7.259,7.259,0,0,0,4.4-1.945h0A7.292,7.292,0,0,0,0,0" fill="#404645"/>
      </g>
      <g id="Group_43" data-name="Group 43" transform="translate(70.036 -29.976)">
        <path id="Path_50" data-name="Path 50" d="M0,0A2.8,2.8,0,0,0-1.3-2.374h0l0,0h0a2.8,2.8,0,0,0-1.5-.435,2.68,2.68,0,0,0-.41-.006h0l-2.006,0-2.473,8.8h6.12L-.085.707-.09.7A2.811,2.811,0,0,0,0,0" fill="#404645"/>
      </g>
      <g id="Group_44" data-name="Group 44" transform="translate(26.454 -2.128)">
        <path id="Path_51" data-name="Path 51" d="M0,0A7.244,7.244,0,0,0-.686,1.964l7.218.013,7.093.013,10.554.018h0A14.747,14.747,0,0,0,38.368-8.811h-.005l3.448-12.336h-6.12L32.664-10.323h0a8.849,8.849,0,0,1-8.528,6.433L6.874-3.919c-.13-.008-.262-.012-.394-.012s-.263,0-.393.01h-.2v.013a7.259,7.259,0,0,0-4.4,1.945h0A7.292,7.292,0,0,0,0,0" fill="#404645"/>
      </g>
      <g id="Group_45" data-name="Group 45" transform="translate(2.917 -4.256)">
        <path id="Path_52" data-name="Path 52" d="M0,0,.149-.51A.534.534,0,0,0,.131-.952.4.4,0,0,0-.23-1.107a.7.7,0,0,0-.452.155A.85.85,0,0,0-.958-.51l-.965,3.3a.527.527,0,0,0,.018.442.4.4,0,0,0,.361.155.7.7,0,0,0,.452-.155.85.85,0,0,0,.276-.442L-.5,1.722h-.553L-.8.856H.667L.1,2.794a2,2,0,0,1-.716,1.06,1.89,1.89,0,0,1-1.181.4,1.087,1.087,0,0,1-.947-.4,1.179,1.179,0,0,1-.1-1.06l.965-3.3a2,2,0,0,1,.716-1.06,1.89,1.89,0,0,1,1.181-.4,1.087,1.087,0,0,1,.947.4,1.183,1.183,0,0,1,.1,1.06L.917,0Z" fill="#404645"/>
      </g>
      <g id="Group_46" data-name="Group 46" transform="translate(6.95 -0.086)">
        <path id="Path_53" data-name="Path 53" d="M0,0,.064-2.5H-.412L-1.142,0h-.917L-.291-6.056H1.145a1.055,1.055,0,0,1,.932.394,1.193,1.193,0,0,1,.082,1.051l-.194.666a2.089,2.089,0,0,1-.379.735,1.874,1.874,0,0,1-.614.5L.952,0ZM-.159-3.365H.316a.724.724,0,0,0,.458-.147.784.784,0,0,0,.269-.416l.2-.7a.474.474,0,0,0-.026-.416.424.424,0,0,0-.372-.147H.373Z" fill="#404645"/>
      </g>
      <g id="Group_47" data-name="Group 47" transform="translate(10.46 -0.402)">
        <path id="Path_54" data-name="Path 54" d="M0,0A1.179,1.179,0,0,1-.1-1.06l.964-3.3a2.009,2.009,0,0,1,.716-1.059,1.894,1.894,0,0,1,1.182-.4,1.085,1.085,0,0,1,.946.4,1.178,1.178,0,0,1,.1,1.059l-.965,3.3A2.008,2.008,0,0,1,2.128,0,1.89,1.89,0,0,1,.947.4,1.086,1.086,0,0,1,0,0M1.651-.619a.849.849,0,0,0,.276-.441l.965-3.3a.528.528,0,0,0-.019-.441.4.4,0,0,0-.361-.155.7.7,0,0,0-.452.155.864.864,0,0,0-.276.441L.82-1.06a.524.524,0,0,0,.018.441A.4.4,0,0,0,1.2-.463a.7.7,0,0,0,.452-.156" fill="#404645"/>
      </g>
    </g>
    <g id="Group_49" data-name="Group 49" transform="translate(16.979 -6.142)">
      <path id="Path_56" data-name="Path 56" d="M0,0-1.768,6.056h2.6l.253-.865H-.6L-.08,3.417H1.26l.253-.865H.172L.664.865H2.352L2.6,0Z" fill="#404645"/>
    </g>
    <g id="Group_51" data-name="Group 51" clip-path="url(#clip-path)">
      <g id="Group_50" data-name="Group 50" transform="translate(21.737 -6.142)">
        <path id="Path_57" data-name="Path 57" d="M0,0H1.436a1.055,1.055,0,0,1,.932.394A1.193,1.193,0,0,1,2.45,1.445l-.207.709a2,2,0,0,1-.7,1.051A1.831,1.831,0,0,1,.385,3.6H-.134L-.851,6.056h-.917ZM.6,2.734a.728.728,0,0,0,.458-.147.782.782,0,0,0,.268-.416l.218-.744a.471.471,0,0,0-.027-.415A.424.424,0,0,0,1.14.865H.665L.119,2.734Z" fill="#404645"/>
      </g>
    </g>
  </g>
</svg>
