<svg xmlns="http://www.w3.org/2000/svg" width="17" height="17" viewBox="0 0 17 17">
  <g id="Group_58" data-name="Group 58" transform="translate(-863.745 -617.368)">
    <path id="Path_22" data-name="Path 22" d="M32.745,0h17V-17h-17Z" transform="translate(831 634.368)" fill="#404645"/>
    <g id="Group_21" data-name="Group 21" transform="translate(874.428 630.812)">
      <path id="Path_23" data-name="Path 23" d="M0,0H-4.365A2.764,2.764,0,0,1-7.126-2.761V-7.126A2.763,2.763,0,0,1-4.365-9.887H0A2.764,2.764,0,0,1,2.761-7.126v4.365A2.765,2.765,0,0,1,0,0M-4.365-9.087A1.964,1.964,0,0,0-6.326-7.126v4.365A1.964,1.964,0,0,0-4.365-.8H0A1.963,1.963,0,0,0,1.96-2.761V-7.126A1.963,1.963,0,0,0,0-9.087Z" fill="#fff"/>
    </g>
    <g id="Group_22" data-name="Group 22" transform="translate(872.245 628.47)">
      <path id="Path_24" data-name="Path 24" d="M0,0A2.605,2.605,0,0,1-2.6-2.6,2.605,2.605,0,0,1,0-5.2,2.6,2.6,0,0,1,2.6-2.6,2.6,2.6,0,0,1,0,0M0-4.4A1.8,1.8,0,0,0-1.8-2.6,1.8,1.8,0,0,0,0-.8,1.8,1.8,0,0,0,1.8-2.6,1.8,1.8,0,0,0,0-4.4" fill="#fff"/>
    </g>
    <g id="Group_23" data-name="Group 23" transform="translate(874.956 623.563)">
      <path id="Path_25" data-name="Path 25" d="M0,0A.406.406,0,0,1-.405-.405.406.406,0,0,1,0-.81a.406.406,0,0,1,.405.405A.406.406,0,0,1,0,0" fill="#fff"/>
    </g>
  </g>
</svg>
