<svg xmlns="http://www.w3.org/2000/svg" width="62.861" height="16.769" viewBox="0 0 62.861 16.769">
  <g id="Group_53" data-name="Group 53" transform="translate(-837.858 -579.828)">
    <g id="Group_32" data-name="Group 32" transform="translate(849.558 581.278)">
      <path id="Path_36" data-name="Path 36" d="M0,0V-.011A1.369,1.369,0,0,0-1.53-1.393H-3.162v4h.879V1.4h.668A1.428,1.428,0,0,0,0,0M-.891.017a.618.618,0,0,1-.7.6h-.7V-.6H-1.6c.439,0,.713.211.713.6ZM3.522,2.6V1.8H1.53v-3.2H.651v4Zm3.705,0V1.821H5.058V.982H6.941V.2H5.058V-.611H7.2v-.782H4.184v4Zm1.7-4H8.049v4h.879Zm0,4,3.887-1.182V1.41c0-.7-.457-.988-1.267-1.2-.691-.177-.862-.262-.862-.525V-.325c0-.194.177-.349.514-.349a1.881,1.881,0,0,1,1.039.394l.456-.662a2.315,2.315,0,0,0-1.484-.508,1.25,1.25,0,0,0-1.4,1.205v.011c0,.793.519,1.016,1.324,1.222.668.171.805.285.805.508v.011c0,.234-.217.377-.577.377A1.839,1.839,0,0,1,10.172,1.4l-.519.622a2.541,2.541,0,0,0,1.695.639c.862,0,1.467-.445,1.467-1.239m3.705-2v-.811H13.21v.811h1.216V2.6h.879V-.582ZM20.237,2.6V1.821h-2.17V.982h1.884V.2H18.067V-.611h2.141v-.782H17.194v4Zm4.235,0L23.5,1.176a1.241,1.241,0,0,0,.856-1.239V-.074c0-.822-.565-1.319-1.507-1.319H21.019v4H21.9V1.324h.69L23.445,2.6Zm-1.01-2.62c0,.337-.246.565-.674.565H21.9V-.6h.873c.428,0,.691.194.691.57Zm7.353-1.376H29.9l-.828,2.706-.9-2.717h-.754l-.9,2.717-.828-2.706h-.942l1.365,4.025h.765l.9-2.615.9,2.615h.764Zm3.693,4V1.821H32.339V.982h1.884V.2H32.339V-.611h2.14v-.782H31.465v4Zm4.236,0-.977-1.427a1.242,1.242,0,0,0,.857-1.239V-.074c0-.822-.565-1.319-1.507-1.319H35.29v4h.879V1.324h.691L37.716,2.6ZM37.733-.017c0,.337-.245.565-.673.565h-.891V-.6h.873c.429,0,.691.194.691.57Zm5.32,2.62L41.352.3l1.627-1.7H41.917L40.3.354V-1.393h-.879v4H40.3V1.381L40.759.9,42,2.6Z" fill="#404645"/>
    </g>
    <path id="Path_39" data-name="Path 39" d="M69.719-37.771H6.858v-6H69.719Z" transform="translate(831 634.368)" fill="#1255ad"/>
  </g>
</svg>
