<svg xmlns="http://www.w3.org/2000/svg" width="62.861" height="16.781" viewBox="0 0 62.861 16.781">
  <g id="Group_55" data-name="Group 55" transform="translate(-963.278 -579.816)">
    <g id="Group_28" data-name="Group 28" transform="translate(973.822 582.699)">
      <path id="Path_31" data-name="Path 31" d="M0,0V-.011C0-.708-.457-1-1.267-1.21c-.691-.177-.862-.263-.862-.525v-.012c0-.194.177-.348.514-.348A1.868,1.868,0,0,1-.577-1.7l.457-.662A2.309,2.309,0,0,0-1.6-2.871,1.25,1.25,0,0,0-3-1.667v.012c0,.793.52,1.016,1.325,1.221.668.171.8.286.8.508V.086c0,.234-.217.376-.577.376A1.832,1.832,0,0,1-2.643-.023L-3.162.6a2.537,2.537,0,0,0,1.695.64C-.605,1.239,0,.793,0,0M4.276.537l-.56-.566A1.441,1.441,0,0,1,2.666.44,1.187,1.187,0,0,1,1.507-.816V-.828A1.183,1.183,0,0,1,2.666-2.072a1.476,1.476,0,0,1,1.022.451l.559-.645a2.06,2.06,0,0,0-1.576-.617A2.031,2.031,0,0,0,.588-.816v.011A2.017,2.017,0,0,0,2.637,1.25,2.045,2.045,0,0,0,4.276.537m4.081.645v-4H7.478v1.581H5.857V-2.814H4.978v4h.879v-1.6H7.478v1.6Zm1.878-4H9.356v4h.879Zm0,4,3.87,0v-.8H12.113v-3.2h-.879v4Zm4.344-2V-.828a1.991,1.991,0,0,0-2.123-1.986H14.767v4h1.559a2,2,0,0,0,2.123-2m-.919.011a1.138,1.138,0,0,1-1.2,1.193h-.68V-2.021h.68a1.148,1.148,0,0,1,1.2,1.2Zm4.744,1.987V.4H20.1V-.44h1.883v-.782H20.1v-.81h2.14v-.782H19.231v4Zm4.235,0L25.533-.245a1.242,1.242,0,0,0,.857-1.239V-1.5c0-.822-.566-1.318-1.508-1.318H23.056v4h.879V-.1h.691l.856,1.279ZM25.5-1.439c0,.337-.245.566-.674.566h-.89V-2.021h.873c.428,0,.691.194.691.571Zm7.353-1.375h-.919L31.1-.108l-.9-2.718h-.754l-.9,2.718-.827-2.706H26.79L28.154,1.21h.765l.9-2.614.9,2.614h.765Zm3.693,4V.4H34.376V-.44H36.26v-.782H34.376v-.81h2.141v-.782H33.5v4Zm4.236,0L39.805-.245a1.242,1.242,0,0,0,.856-1.239V-1.5c0-.822-.565-1.318-1.507-1.318H37.327v4h.879V-.1H38.9l.856,1.279ZM39.77-1.439c0,.337-.245.566-.673.566h-.891V-2.021h.874c.428,0,.69.194.69.571Zm5.321,2.621-1.7-2.3,1.627-1.695H43.955L42.333-1.067V-2.814h-.879v4h.879V-.04L42.8-.519l1.239,1.7Z" fill="#404645"/>
    </g>
    <path id="Path_41" data-name="Path 41" d="M195.139-37.771H132.278v-6h62.861Z" transform="translate(831 634.368)" fill="#ff4440"/>
  </g>
</svg>
