<svg xmlns="http://www.w3.org/2000/svg" width="62.861" height="16.781" viewBox="0 0 62.861 16.781">
  <g id="Group_54" data-name="Group 54" transform="translate(-900.417 -579.816)">
    <g id="Group_26" data-name="Group 26" transform="translate(911.862 582.699)">
      <path id="Path_29" data-name="Path 29" d="M0,0V-.011C0-.708-.457-1-1.267-1.21c-.691-.177-.862-.263-.862-.525v-.012c0-.194.177-.348.514-.348A1.868,1.868,0,0,1-.577-1.7l.457-.662A2.309,2.309,0,0,0-1.6-2.871,1.25,1.25,0,0,0-3-1.667v.012c0,.793.52,1.016,1.325,1.221.668.171.8.286.8.508V.086c0,.234-.217.376-.577.376A1.832,1.832,0,0,1-2.643-.023L-3.162.6a2.537,2.537,0,0,0,1.695.64C-.605,1.239,0,.793,0,0M4.276.537l-.56-.566A1.441,1.441,0,0,1,2.666.44,1.187,1.187,0,0,1,1.507-.816V-.828A1.183,1.183,0,0,1,2.666-2.072a1.476,1.476,0,0,1,1.022.451l.559-.645a2.06,2.06,0,0,0-1.576-.617A2.031,2.031,0,0,0,.588-.816v.011A2.017,2.017,0,0,0,2.637,1.25,2.045,2.045,0,0,0,4.276.537m4.081.645v-4H7.478v1.581H5.857V-2.814H4.978v4h.879v-1.6H7.478v1.6Zm4.412,0L11.793-.245a1.242,1.242,0,0,0,.857-1.239V-1.5c0-.822-.566-1.318-1.507-1.318H9.316v4h.879V-.1h.691l.856,1.279Zm-1.01-2.621c0,.337-.245.566-.673.566h-.891V-2.021h.873c.429,0,.691.194.691.571Zm2.6-1.375h-.879v4h.879Zm0,4M17.684-.2V-2.814h-.9V-.24c0,.463-.2.662-.536.662a.985.985,0,0,1-.731-.4l-.554.616a1.633,1.633,0,0,0,1.308.6A1.3,1.3,0,0,0,17.684-.2m4.447,1.382v-4h-.868v2.46l-1.872-2.46h-.81v4h.867V-1.359l1.935,2.541Zm6.713-4h-.919L27.1-.108l-.9-2.718h-.753l-.9,2.718-.827-2.706h-.942L24.146,1.21h.765l.9-2.614.9,2.614h.765Zm3.693,4V.4H30.368V-.44h1.884v-.782H30.368v-.81h2.141v-.782H29.5v4Zm4.236,0L35.8-.245a1.242,1.242,0,0,0,.856-1.239V-1.5c0-.822-.565-1.318-1.507-1.318H33.319v4H34.2V-.1h.691l.856,1.279Zm-1.01-2.621c0,.337-.246.566-.674.566H34.2V-2.021h.874c.428,0,.691.194.691.571Zm5.32,2.621-1.7-2.3,1.626-1.695H39.947L38.326-1.067V-2.814h-.88v4h.88V-.04l.462-.479,1.239,1.7Z" fill="#404645"/>
    </g>
    <path id="Path_38" data-name="Path 38" d="M132.278-37.771H69.417v-6h62.861Z" transform="translate(831 634.368)" fill="#c69a68"/>
  </g>
</svg>
