<svg xmlns="http://www.w3.org/2000/svg" width="62.861" height="16.781" viewBox="0 0 62.861 16.781">
  <g id="Group_56" data-name="Group 56" transform="translate(-1026.139 -579.816)">
    <g id="Group_27" data-name="Group 27" transform="translate(1030.993 580.695)">
      <path id="Path_30" data-name="Path 30" d="M0,0V-.811H-3.311V0H-2.1V3.185h.879V0ZM4.572,1.187V1.176A2.047,2.047,0,0,0,2.454-.879,2.066,2.066,0,0,0,.325,1.187V1.2A2.047,2.047,0,0,0,2.443,3.254,2.067,2.067,0,0,0,4.572,1.187M3.653,1.2a1.2,1.2,0,0,1-1.2,1.244,1.215,1.215,0,0,1-1.21-1.256V1.176a1.2,1.2,0,0,1,1.2-1.244,1.213,1.213,0,0,1,1.21,1.255ZM8.208,0V-.811H4.9V0H6.113V3.185h.879V0Zm4.053,3.185L10.548-.839H9.737L8.025,3.185h.9l.366-.9h1.689l.366.9Zm-1.6-1.672H9.6l.531-1.3Zm5.994,1.672L14.943-.839h-.81L12.42,3.185h.9l.366-.9h1.689l.366.9Zm-1.6-1.672H14l.531-1.3Zm5.086,1.672v-.8H18.151v-3.2h-.879v4Zm4.555,0L22.986-.839h-.81L20.463,3.185h.9l.366-.9h1.689l.366.9ZM23.1,1.513H22.039l.531-1.3ZM28.358-.011v-.8H25.315v4h.879V1.638H28.1v-.8H26.194v-.85Zm6.456-.8H33.9l-.828,2.706-.9-2.717h-.754l-.9,2.717L29.694-.811h-.942l1.364,4.025h.765L31.783.6l.9,2.615h.765Zm3.693,4V2.4H36.338V1.564h1.884V.782H36.338V-.029h2.141V-.811H35.465v4Zm4.236,0-.976-1.427A1.24,1.24,0,0,0,42.623.519V.508c0-.822-.565-1.319-1.507-1.319H39.289v4h.879V1.907h.691l.856,1.278ZM41.732.565c0,.337-.245.565-.673.565h-.891V-.017h.874c.428,0,.69.194.69.571Zm5.321,2.62-1.7-2.3,1.627-1.7H45.917L44.295.936V-.811h-.879v4h.879V1.964l.463-.48L46,3.185Zm1.449-4h-.879v4H48.5Zm0,4,4.55,0v-4h-.868V1.65L50.312-.811H49.5v4h.868V.645L52.3,3.185Zm4.589-.565V.885H55.906v.759h.885v.571a1.4,1.4,0,0,1-.828.24,1.2,1.2,0,0,1-1.21-1.268V1.176A1.2,1.2,0,0,1,55.9-.068a1.47,1.47,0,0,1,1.045.405L57.5-.331a2.2,2.2,0,0,0-1.57-.548,2.051,2.051,0,0,0-2.1,2.066V1.2a2,2,0,0,0,2.1,2.055,2.594,2.594,0,0,0,1.706-.634" fill="#404645"/>
    </g>
    <path id="Path_40" data-name="Path 40" d="M195.139-37.771H258v-6H195.139Z" transform="translate(831 634.368)" fill="#28b27b"/>
  </g>
</svg>
